HIERARCHY
ROOT Hips
{
	OFFSET -0.001795 -0.223333 0.028219
	CHANNELS 6 Xposition Yposition Zposition Zrotation Yrotation Xrotation
	JOINT LeftUpLeg
	{
		OFFSET 0.069520 -0.091406 -0.006815
		CHANNELS 3 Zrotation Yrotation Xrotation
		JOINT LeftLeg
		{
			OFFSET 0.034277 -0.375199 -0.004496
			CHANNELS 3 Zrotation Yrotation Xrotation
			JOINT LeftFoot
			{
				OFFSET -0.013596 -0.397961 -0.043693
				CHANNELS 3 Zrotation Yrotation Xrotation
				JOINT LeftToe
				{
					OFFSET 0.026358 -0.055791 0.119288
					CHANNELS 3 Zrotation Yrotation Xrotation
					End Site
					{
						OFFSET 0.000000 0.000000 0.000000
					}
				}
			}
		}
	}
	JOINT RightUpLeg
	{
		OFFSET -0.067670 -0.090522 -0.004320
		CHANNELS 3 Zrotation Yrotation Xrotation
		JOINT RightLeg
		{
			OFFSET -0.038290 -0.382569 -0.008850
			CHANNELS 3 Zrotation Yrotation Xrotation
			JOINT RightFoot
			{
				OFFSET 0.015774 -0.398415 -0.042312
				CHANNELS 3 Zrotation Yrotation Xrotation
				JOINT RightToe
				{
					OFFSET -0.025372 -0.048144 0.123348
					CHANNELS 3 Zrotation Yrotation Xrotation
					End Site
					{
						OFFSET 0.000000 0.000000 0.000000
					}
				}
			}
		}
	}
	JOINT Spine
	{
		OFFSET -0.002533 0.108963 -0.026696
		CHANNELS 3 Zrotation Yrotation Xrotation
		JOINT Spine1
		{
			OFFSET 0.005487 0.135180 0.001092
			CHANNELS 3 Zrotation Yrotation Xrotation
			JOINT Spine2
			{
				OFFSET 0.001457 0.052922 0.025425
				CHANNELS 3 Zrotation Yrotation Xrotation
				JOINT Neck
				{
					OFFSET -0.002778 0.213870 -0.042857
					CHANNELS 3 Zrotation Yrotation Xrotation
					JOINT Head
					{
						OFFSET 0.005152 0.064970 0.051349
						CHANNELS 3 Zrotation Yrotation Xrotation
						End Site
						{
							OFFSET 0.000000 0.000000 0.000000
						}
					}
				}
				JOINT LeftShoulder
				{
					OFFSET 0.078845 0.121749 -0.034090
					CHANNELS 3 Zrotation Yrotation Xrotation
					JOINT LeftArm
					{
						OFFSET 0.090977 0.030469 -0.008868
						CHANNELS 3 Zrotation Yrotation Xrotation
						JOINT LeftForeArm
						{
							OFFSET 0.259612 -0.012772 -0.027456
							CHANNELS 3 Zrotation Yrotation Xrotation
							JOINT LeftHand
							{
								OFFSET 0.249234 0.008986 -0.001171
								CHANNELS 3 Zrotation Yrotation Xrotation
								End Site
								{
									OFFSET 0.000000 0.000000 0.000000
								}
							}
						}
					}
				}
				JOINT RightShoulder
				{
					OFFSET -0.081759 0.118833 -0.038615
					CHANNELS 3 Zrotation Yrotation Xrotation
					JOINT RightArm
					{
						OFFSET -0.096012 0.032551 -0.009143
						CHANNELS 3 Zrotation Yrotation Xrotation
						JOINT RightForeArm
						{
							OFFSET -0.253742 -0.013329 -0.021401
							CHANNELS 3 Zrotation Yrotation Xrotation
							JOINT RightHand
							{
								OFFSET -0.255298 0.007772 -0.005559
								CHANNELS 3 Zrotation Yrotation Xrotation
								End Site
								{
									OFFSET 0.000000 0.000000 0.000000
								}
							}
						}
					}
				}
			}
		}
	}
}
MOTION
Frames: 10
Frame Time: 0.050000
-0.021217 0.798514 0.009006 -4.302488 -2.608756 -11.076481 32.099123 2.864618 -11.958418 -8.531820 3.059129 47.886978 5.890265 10.566873 -7.152085 0.000000 0.000000 0.000000 -13.483663 -0.218683 -32.235284 4.622056 0.109447 49.200573 -1.048099 -3.349614 1.549563 0.000000 0.000000 0.000000 1.926735 -1.469494 27.091613 -10.011028 3.638573 -18.289220 -7.992247 -1.675479 16.665503 21.312177 -11.531660 -23.942858 0.000000 0.000000 0.000000 -26.268215 -23.403580 13.007302 -12.802274 -11.207685 -1.229301 4.487741 -38.124852 -0.436878 0.000000 0.000000 0.000000 28.806218 13.978536 6.012927 24.848345 28.337292 1.836039 12.441630 49.233003 6.869900 0.000000 0.000000 0.000000
-0.024332 0.796216 0.014493 -4.544434 -2.067442 -10.475433 33.088683 3.007212 -12.734239 -9.090404 3.286363 48.219119 5.575750 9.836303 -6.994784 0.000000 0.000000 0.000000 -13.536875 -0.297101 -32.753433 5.417381 -0.509150 49.914642 -0.710967 -1.753871 -0.076689 0.000000 0.000000 0.000000 1.805919 -1.495839 27.270597 -10.266425 3.661449 -19.068712 -8.054656 -1.387075 17.268103 21.392256 -11.229112 -25.044161 0.000000 0.000000 0.000000 -25.591518 -24.601439 13.466340 -12.663230 -12.525553 -1.140101 4.927273 -37.538088 -0.587605 0.000000 0.000000 0.000000 28.119177 14.284330 6.429371 23.764104 29.579976 1.778750 10.155356 49.856947 5.987143 0.000000 0.000000 0.000000
-0.026833 0.791223 0.022264 -4.578983 -1.921005 -10.103737 33.762595 3.157905 -13.272687 -9.408943 3.491721 48.958475 5.514477 9.775477 -6.682784 0.000000 0.000000 0.000000 -13.873842 -0.410001 -33.568658 6.580870 -1.260021 51.601159 -0.553072 -0.452432 -1.806707 0.000000 0.000000 0.000000 1.794255 -1.521557 27.563521 -10.730484 3.771310 -19.448090 -8.012824 -1.465720 17.312434 21.533347 -11.017556 -25.989995 0.000000 0.000000 0.000000 -25.371575 -25.398403 13.927067 -11.984007 -13.488151 -1.067829 4.777727 -36.623663 -0.527641 0.000000 0.000000 0.000000 27.438790 14.543747 6.560395 23.678083 30.960163 1.982168 8.445523 50.238156 5.270435 0.000000 0.000000 0.000000
-0.028236 0.785354 0.032418 -4.776165 -1.560199 -9.787936 34.176429 3.171800 -13.526222 -9.582686 3.562031 49.776467 5.977234 10.631235 -7.562259 0.000000 0.000000 0.000000 -13.967191 -0.493471 -34.229727 7.225015 -1.803061 53.172150 -0.656076 -0.086641 -2.989949 0.000000 0.000000 0.000000 1.874797 -1.546866 27.176092 -10.643390 3.734999 -19.535160 -8.056360 -1.539425 17.645386 21.192024 -10.619859 -26.622603 0.000000 0.000000 0.000000 -25.490690 -26.202161 14.438664 -11.544639 -14.243953 -1.027277 5.167414 -35.680418 -0.640371 0.000000 0.000000 0.000000 27.299009 15.343365 7.120787 22.621465 31.963628 1.925976 6.472854 49.572626 4.308536 0.000000 0.000000 0.000000
-0.028558 0.780059 0.044142 -4.818752 -1.412100 -9.874687 34.377638 3.193117 -13.627383 -9.548423 3.542147 50.665976 6.348439 11.704203 -6.742037 0.000000 0.000000 0.000000 -14.350413 -0.637763 -34.469041 8.088474 -2.449287 54.887731 -1.346406 -1.571108 -3.764243 0.000000 0.000000 0.000000 2.046082 -1.595665 27.157679 -10.709092 3.760272 -19.532457 -7.928754 -1.671485 17.748136 20.983947 -10.451191 -26.817860 0.000000 0.000000 0.000000 -25.908741 -26.710936 14.873716 -11.175981 -14.678799 -1.006181 6.202010 -34.356195 -0.929468 0.000000 0.000000 0.000000 26.997107 15.749717 7.337930 22.922390 32.988095 2.141315 4.185835 48.320206 3.196141 0.000000 0.000000 0.000000
-0.027901 0.778410 0.055912 -4.945695 -1.481504 -9.846259 34.536498 3.222695 -13.635305 -9.103142 3.313744 51.306374 6.125151 11.606380 -4.951492 0.000000 0.000000 0.000000 -14.274382 -0.598698 -34.189725 8.525506 -2.753914 55.787160 -2.033899 -3.038557 -4.659997 0.000000 0.000000 0.000000 2.193004 -1.623520 27.119669 -10.575921 3.714711 -19.538877 -7.972288 -1.757633 17.885038 21.242827 -10.473673 -27.356774 0.000000 0.000000 0.000000 -25.999283 -27.190957 15.244130 -10.630520 -14.592410 -1.008584 7.009714 -33.945809 -1.168164 0.000000 0.000000 0.000000 26.721698 16.385667 7.678649 22.843081 33.926936 2.275075 2.826994 47.784035 2.567829 0.000000 0.000000 0.000000
-0.026846 0.778311 0.066566 -5.145962 -1.520126 -9.362966 34.724745 3.321944 -14.076972 -9.039510 3.348999 52.118486 6.090732 11.882854 -3.394482 0.000000 0.000000 0.000000 -14.104079 -0.528586 -34.130374 8.980985 -3.084058 56.247670 -2.761342 -4.740309 -5.453821 0.000000 0.000000 0.000000 2.271059 -1.632615 26.947306 -10.368651 3.668801 -19.144510 -7.982849 -1.713916 17.354135 21.871452 -10.783308 -27.319924 0.000000 0.000000 0.000000 -25.780240 -27.493057 15.360423 -10.592748 -14.217287 -1.006854 8.219469 -34.026620 -1.528886 0.000000 0.000000 0.000000 27.225508 16.816784 7.997775 21.863520 34.558527 2.199677 1.675117 47.298697 2.046440 0.000000 0.000000 0.000000
-0.025874 0.777225 0.075754 -5.148778 -1.815428 -8.973263 34.818654 3.509855 -14.680563 -8.792221 3.369463 53.521329 5.664737 11.372974 -1.606288 0.000000 0.000000 0.000000 -14.254603 -0.516987 -34.339733 9.791844 -3.588162 57.192149 -3.443072 -6.295245 -6.424906 0.000000 0.000000 0.000000 2.256992 -1.627651 27.192280 -10.647102 3.707603 -19.460268 -7.609407 -1.588952 17.422145 22.148726 -10.886942 -27.564244 0.000000 0.000000 0.000000 -25.517962 -27.758088 15.507034 -9.668246 -14.067802 -1.000767 9.634345 -33.754193 -1.951951 0.000000 0.000000 0.000000 26.899820 17.015570 8.072136 21.707413 35.062943 2.232749 -0.117047 48.317466 1.319898 0.000000 0.000000 0.000000
-0.025310 0.772895 0.083837 -5.253050 -2.383185 -8.772012 35.300553 3.775859 -15.064077 -8.487933 3.399099 54.804231 5.144219 10.696908 0.160041 0.000000 0.000000 0.000000 -14.457600 -0.488233 -34.824382 10.715442 -4.094308 58.119443 -3.896165 -7.388918 -7.002481 0.000000 0.000000 0.000000 2.094139 -1.586374 27.753472 -10.503752 3.598675 -19.991236 -7.648337 -1.313623 17.817682 22.544319 -10.984555 -28.158865 0.000000 0.000000 0.000000 -24.506732 -27.874580 15.359957 -8.889384 -13.489659 -1.006580 11.873291 -33.364421 -2.609645 0.000000 0.000000 0.000000 26.561565 16.993040 8.026127 21.856312 35.997074 2.371968 -1.646663 49.731507 0.687045 0.000000 0.000000 0.000000
-0.025061 0.766344 0.091168 -5.704224 -2.503683 -8.589141 36.034274 3.971247 -15.387012 -8.239963 3.307831 55.993249 5.057804 10.485229 -0.000631 0.000000 0.000000 0.000000 -14.728104 -0.556774 -35.338377 11.863009 -4.963959 59.247407 -4.282713 -8.280530 -7.730015 0.000000 0.000000 0.000000 1.741420 -1.544610 28.472548 -10.374017 3.542592 -20.115381 -6.956298 -1.464040 17.857841 21.835977 -10.528080 -28.392351 0.000000 0.000000 0.000000 -24.118504 -27.614040 15.198652 -7.460198 -13.405119 -0.978532 13.859832 -32.439066 -3.118430 0.000000 0.000000 0.000000 25.735696 16.700260 7.677586 22.692874 36.921029 2.712499 -3.744510 51.894755 -0.276252 0.000000 0.000000 0.000000
